<?xml version="1.0" encoding="UTF-8" standalone="no"?>
<svg
   xmlns:dc="http://purl.org/dc/elements/1.1/"
   xmlns:cc="http://creativecommons.org/ns#"
   xmlns:rdf="http://www.w3.org/1999/02/22-rdf-syntax-ns#"
   xmlns:svg="http://www.w3.org/2000/svg"
   xmlns="http://www.w3.org/2000/svg"
   xmlns:xlink="http://www.w3.org/1999/xlink"
   id="svg67"
   version="1.1"
   viewBox="0 0 530 530"
   height="530"
   width="530">
  <metadata
     id="metadata71">
    <rdf:RDF>
      <cc:Work
         rdf:about="">
        <dc:format>image/svg+xml</dc:format>
        <dc:type
           rdf:resource="http://purl.org/dc/dcmitype/StillImage" />
      </cc:Work>
    </rdf:RDF>
  </metadata>
  <title
     id="title2">logo</title>
  <desc
     id="desc4">Created using Figma</desc>
  <g
     transform="translate(1676 2098)"
     id="Canvas">
    <g
       id="logo">
      <g
         id="Layer 7">
        <g
           id="Vector">
          <use
             id="use6"
             fill="#123753"
             transform="translate(-1661 -2083)"
             xlink:href="#path0_fill" />
          <use
             id="use8"
             fill="#69F0AE"
             transform="translate(-1661 -2083)"
             xlink:href="#path1_stroke" />
        </g>
      </g>
      <g
         id="Layer 5">
        <g
           id="g14">
          <use
             id="use12"
             fill="url(#paint2_linear)"
             transform="translate(-1498 -1876)"
             xlink:href="#path2_fill" />
        </g>
        <g
           id="g18">
          <use
             id="use16"
             fill="url(#paint3_linear)"
             transform="translate(-1433.3 -1771.4)"
             xlink:href="#path3_fill" />
        </g>
        <g
           id="g22">
          <use
             id="use20"
             fill="url(#paint4_linear)"
             transform="translate(-1438 -1927.8)"
             xlink:href="#path4_fill" />
        </g>
        <g
           id="g26">
          <use
             id="use24"
             fill="url(#paint5_linear)"
             transform="translate(-1498 -1928)"
             xlink:href="#path5_fill" />
        </g>
      </g>
    </g>
  </g>
  <defs
     id="defs65">
    <linearGradient
       gradientTransform="matrix(34.0564 0 0 34.0564 -0.0419 52.2582)"
       gradientUnits="userSpaceOnUse"
       y2="0"
       x2="1"
       y1="0"
       x1="0"
       id="paint2_linear">
      <stop
         id="stop31"
         stop-color="#69F0AE"
         offset="0" />
      <stop
         id="stop33"
         stop-color="#69F0AE"
         offset="0.8932" />
      <stop
         id="stop35"
         stop-color="#69F0AE"
         offset="0.9892" />
    </linearGradient>
    <linearGradient
       gradientTransform="matrix(0 34.0564 -34.0564 0 71.1576 -0.0382)"
       gradientUnits="userSpaceOnUse"
       y2="0"
       x2="1"
       y1="0"
       x1="0"
       id="paint3_linear">
      <stop
         id="stop38"
         stop-color="#69F0AE"
         offset="0" />
      <stop
         id="stop40"
         stop-color="#69F0AE"
         offset="0.8932" />
      <stop
         id="stop42"
         stop-color="#69F0AE"
         offset="0.9892" />
    </linearGradient>
    <linearGradient
       gradientTransform="matrix(34.0564 0 0 34.0564 -0.0419 78.1788)"
       gradientUnits="userSpaceOnUse"
       y2="0"
       x2="1"
       y1="0"
       x1="0"
       id="paint4_linear">
      <stop
         id="stop45"
         stop-color="#69F0AE"
         offset="0" />
      <stop
         id="stop47"
         stop-color="#69F0AE"
         offset="0.8932" />
      <stop
         id="stop49"
         stop-color="#69F0AE"
         offset="0.9892" />
    </linearGradient>
    <linearGradient
       gradientTransform="matrix(34.0564 0 0 34.0564 -0.0419 0.2667)"
       gradientUnits="userSpaceOnUse"
       y2="0"
       x2="1"
       y1="0"
       x1="0"
       id="paint5_linear">
      <stop
         id="stop52"
         stop-color="#69F0AE"
         offset="0" />
      <stop
         id="stop54"
         stop-color="#69F0AE"
         offset="0.8932" />
      <stop
         id="stop56"
         stop-color="#69F0AE"
         offset="0.9892" />
    </linearGradient>
    <path
       d="M 250 500C 388.071 500 500 388.071 500 250C 500 111.929 388.071 0 250 0C 111.929 0 0 111.929 0 250C 0 388.071 111.929 500 250 500Z"
       id="path0_fill" />
    <path
       d="M 485 250C 485 379.787 379.787 485 250 485L 250 515C 396.355 515 515 396.355 515 250L 485 250ZM 250 485C 120.213 485 15 379.787 15 250L -15 250C -15 396.355 103.645 515 250 515L 250 485ZM 15 250C 15 120.213 120.213 15 250 15L 250 -15C 103.645 -15 -15 103.645 -15 250L 15 250ZM 250 15C 379.787 15 485 120.213 485 250L 515 250C 515 103.645 396.355 -15 250 -15L 250 15Z"
       id="path1_stroke" />
    <path
       d="M 34.1 3.05176e-06L 0 3.05176e-06L 0 138.7L 34.1 138.7L 34.1 3.05176e-06Z"
       id="path2_fill" />
    <path
       d="M -3.05176e-06 34L -3.05176e-06 -6.10352e-06L 108.3 -6.10352e-06L 108.3 34L -3.05176e-06 34Z"
       id="path3_fill" />
    <path
       d="M 34.1 0L 0 0L 0 190.4L 34.1 190.4L 34.1 0Z"
       id="path4_fill" />
    <path
       d="M 17 34.6C 26.3888 34.6 34 26.8545 34 17.3C 34 7.74548 26.3888 3.05176e-06 17 3.05176e-06C 7.61116 3.05176e-06 0 7.74548 0 17.3C 0 26.8545 7.61116 34.6 17 34.6Z"
       id="path5_fill" />
  </defs>
</svg>
